<svg xmlns="http://www.w3.org/2000/svg" viewBox="0 0 64 64">
  <defs>
    <linearGradient id="neon" x1="0%" y1="0%" x2="100%" y2="100%">
      <stop offset="0%" stop-color="#39FF14"/>
      <stop offset="100%" stop-color="#00FF41"/>
    </linearGradient>
    <filter id="glow">
      <feGaussianBlur stdDeviation="1.5" result="blur"/>
      <feMerge>
        <feMergeNode in="blur"/>
        <feMergeNode in="SourceGraphic"/>
      </feMerge>
    </filter>
  </defs>

  <g stroke="#39FF14" stroke-width="2.5" stroke-linecap="round" opacity="0.9" filter="url(#glow)">
    <line x1="6" y1="16" x2="20" y2="16"/>
    <line x1="4" y1="24" x2="18" y2="24"/>
    <line x1="6" y1="32" x2="20" y2="32"/>
    <line x1="4" y1="40" x2="18" y2="40"/>
    <line x1="6" y1="48" x2="20" y2="48"/>
  </g>

  <rect x="22" y="10" width="34" height="44" rx="5" fill="url(#neon)" filter="url(#glow)"/>

  <rect x="37" y="10" width="4" height="44" fill="#0a0a0a" opacity="0.85"/>
  <rect x="22" y="27" width="34" height="5" fill="#0a0a0a" opacity="0.85"/>

  <g transform="translate(37, 16)" fill="#0a0a0a">
    <path d="M2 8 L7 1 L8 7 L14 7 L9 12 L11 18 L2 14 L-7 18 L-5 12 L-11 7 L-5 7 Z"/>
  </g>
</svg>
